<svg xmlns="http://www.w3.org/2000/svg" viewBox="0 0 64 64" role="img" aria-label="WEIZAC icon">
  <defs>
    <linearGradient id="bg" x1="0" y1="0" x2="1" y2="1">
      <stop offset="0" stop-color="#1f2f2b"/>
      <stop offset="1" stop-color="#0d1412"/>
    </linearGradient>
    <linearGradient id="gold" x1="0" y1="0" x2="1" y2="1">
      <stop offset="0" stop-color="#f6d46b"/>
      <stop offset="1" stop-color="#c48f2b"/>
    </linearGradient>
  </defs>
  <rect width="64" height="64" rx="12" fill="url(#bg)"/>
  <path d="M12 18h7l5 24 6-24h5l6 24 5-24h7l-8 32h-8l-5-20-5 20h-8L12 18z" fill="url(#gold)"/>
  <path d="M13 14h38M13 54h38M10 22h6M48 22h6M10 42h6M48 42h6" stroke="#78d68a" stroke-width="2" stroke-linecap="round" opacity="0.78"/>
  <circle cx="13" cy="14" r="2" fill="#78d68a"/>
  <circle cx="51" cy="14" r="2" fill="#78d68a"/>
  <circle cx="13" cy="54" r="2" fill="#78d68a"/>
  <circle cx="51" cy="54" r="2" fill="#78d68a"/>
</svg>